<svg xmlns="http://www.w3.org/2000/svg" width="804" height="213" viewBox="0 0 804 213">
  <g id="Group_7137" data-name="Group 7137" transform="translate(-269 -143)">
    <rect id="Rectangle_584" data-name="Rectangle 584" width="804" height="213" rx="15" transform="translate(269 143)" fill="#2b335b"/>
    <g id="Group_6133" data-name="Group 6133" transform="translate(-25 -515)">
      <path id="Path_110" data-name="Path 110" d="M2249.189,1372.059h73.237s-.354-2.908-8.491-5.236-13.976,3.636-23.174,0-14.077-8.853-25.93-5.944S2249.189,1372.059,2249.189,1372.059Z" transform="translate(-1607.714 -673.477)" fill="#2c3681" stroke="#5aa3ff" stroke-linecap="round" stroke-linejoin="round" stroke-width="0.785"/>
      <path id="Path_112" data-name="Path 112" d="M2467.445,1293.643h53.272s-.257-2.573-6.176-4.633-10.166,3.218-16.857,0-10.24-7.832-18.862-5.256A17.972,17.972,0,0,0,2467.445,1293.643Z" transform="translate(-1835.069 -560.234)" fill="#2c3681" stroke="#5aa3ff" stroke-width="1" opacity="0.25" style="isolation: isolate"/>
      <path id="Path_112-2" data-name="Path 112" d="M2467.445,1293.643h53.272s-.257-2.573-6.176-4.633-10.166,3.218-16.857,0-10.24-7.832-18.862-5.256A17.972,17.972,0,0,0,2467.445,1293.643Z" transform="translate(-1746.069 -601.234)" fill="#2c3681" stroke="#5aa3ff" stroke-width="1" opacity="0.25" style="isolation: isolate"/>
    </g>
  </g>
</svg>
