<svg id="supermarket" xmlns="http://www.w3.org/2000/svg" width="20.244" height="17.793" viewBox="0 0 20.244 17.793">
  <path id="Path_7744" data-name="Path 7744" d="M6.523,11.862H17.279a.593.593,0,0,0,.57-.43l2.372-8.3a.593.593,0,0,0-.57-.756H5.155L4.731.464A.593.593,0,0,0,4.152,0H.593a.593.593,0,0,0,0,1.186H3.676l2.141,9.636a1.779,1.779,0,0,0,.707,3.412H17.279a.593.593,0,0,0,0-1.186H6.524a.593.593,0,0,1,0-1.186Zm12.342-8.3-2.034,7.117H7L5.418,3.559Zm0,0" fill="#fff"/>
  <path id="Path_7745" data-name="Path 7745" d="M150,361.779A1.779,1.779,0,1,0,151.779,360,1.781,1.781,0,0,0,150,361.779Zm1.779-.593a.593.593,0,1,1-.593.593A.594.594,0,0,1,151.779,361.186Zm0,0" transform="translate(-144.069 -345.766)" fill="#fff"/>
  <path id="Path_7746" data-name="Path 7746" d="M362,361.779A1.779,1.779,0,1,0,363.779,360,1.781,1.781,0,0,0,362,361.779Zm1.779-.593a.593.593,0,1,1-.593.593A.594.594,0,0,1,363.779,361.186Zm0,0" transform="translate(-347.687 -345.766)" fill="#fff"/>
</svg>
