<svg xmlns="http://www.w3.org/2000/svg" width="9.878" height="14.132" viewBox="0 0 9.878 14.132">
  <path id="Path_7172" data-name="Path 7172" d="M-226.964,294.207a.674.674,0,0,0-.088,0h-.7v-2.117h0a3.544,3.544,0,0,0-3.542-3.546q-.172,0-.344.017a3.665,3.665,0,0,0-3.176,3.67v1.975h-.7a.707.707,0,0,0-.706.706v7.058a.759.759,0,0,0,.706.706h8.464a.707.707,0,0,0,.706-.706v-7.058A.663.663,0,0,0-226.964,294.207Zm-6.439-2.046a2.207,2.207,0,0,1,1.7-2.188,2.161,2.161,0,0,1,2.507,1.751,2.154,2.154,0,0,1,.033.367v2.117H-233.4Zm2.826,6.775h0v.918a.707.707,0,0,1-.68.732.707.707,0,0,1-.732-.681v-.969a1.458,1.458,0,0,1-.7-1.2,1.4,1.4,0,0,1,1.407-1.391,1.384,1.384,0,0,1,.357.049,1.587,1.587,0,0,1,1.059,1.057A1.375,1.375,0,0,1-230.577,298.936Z" transform="translate(236.223 -288.545)" fill="#ffc33c"/>
</svg>
