<svg xmlns="http://www.w3.org/2000/svg" width="67.947" height="11.929" viewBox="0 0 67.947 11.929">
  <g id="Group_7134" data-name="Group 7134" transform="translate(-389 -841.035)">
    <path id="star" d="M11.63,4.282,7.957,3.721,6.311.215a.389.389,0,0,0-.675,0L3.99,3.721.317,4.282a.373.373,0,0,0-.211.63L2.775,7.647l-.631,3.866a.374.374,0,0,0,.549.387l3.28-1.813L9.254,11.9a.374.374,0,0,0,.549-.387L9.172,7.647,11.84,4.912a.374.374,0,0,0-.211-.63Z" transform="translate(389 841.017)" fill="#ffc107"/>
    <path id="star-2" data-name="star" d="M11.63,4.282,7.957,3.721,6.311.215a.389.389,0,0,0-.675,0L3.99,3.721.317,4.282a.373.373,0,0,0-.211.63L2.775,7.647l-.631,3.866a.374.374,0,0,0,.549.387l3.28-1.813L9.254,11.9a.374.374,0,0,0,.549-.387L9.172,7.647,11.84,4.912a.374.374,0,0,0-.211-.63Z" transform="translate(403 841.017)" fill="#ffc107"/>
    <path id="star-3" data-name="star" d="M11.63,4.282,7.957,3.721,6.311.215a.389.389,0,0,0-.675,0L3.99,3.721.317,4.282a.373.373,0,0,0-.211.63L2.775,7.647l-.631,3.866a.374.374,0,0,0,.549.387l3.28-1.813L9.254,11.9a.374.374,0,0,0,.549-.387L9.172,7.647,11.84,4.912a.374.374,0,0,0-.211-.63Z" transform="translate(417 841.017)" fill="#ffc107"/>
    <path id="star-4" data-name="star" d="M11.63,4.282,7.957,3.721,6.311.215a.389.389,0,0,0-.675,0L3.99,3.721.317,4.282a.373.373,0,0,0-.211.63L2.775,7.647l-.631,3.866a.374.374,0,0,0,.549.387l3.28-1.813L9.254,11.9a.374.374,0,0,0,.549-.387L9.172,7.647,11.84,4.912a.374.374,0,0,0-.211-.63Z" transform="translate(431 841.017)" fill="#ffc107"/>
    <path id="star-5" data-name="star" d="M11.63,4.282,7.957,3.721,6.311.215a.389.389,0,0,0-.675,0L3.99,3.721.317,4.282a.373.373,0,0,0-.211.63L2.775,7.647l-.631,3.866a.374.374,0,0,0,.549.387l3.28-1.813L9.254,11.9a.374.374,0,0,0,.549-.387L9.172,7.647,11.84,4.912a.374.374,0,0,0-.211-.63Z" transform="translate(445 841.017)" fill="#ffc107"/>
  </g>
</svg>
