<svg xmlns="http://www.w3.org/2000/svg" width="76" height="76" viewBox="0 0 76 76">
  <g id="Group_7138" data-name="Group 7138" transform="translate(-1169 -530)">
    <rect id="Rectangle_446" data-name="Rectangle 446" width="76" height="76" rx="10" transform="translate(1169 530)" fill="#2b335b"/>
    <g id="read" transform="translate(1194.506 558.188)">
      <g id="Group_6109" data-name="Group 6109" transform="translate(0 0)">
        <g id="Group_6108" data-name="Group 6108" transform="translate(0 0)">
          <path id="Path_6713" data-name="Path 6713" d="M35.745,35.049h0a.9.9,0,0,0-.64.265.91.91,0,0,0-.269.649V49.671a.917.917,0,0,0,.915.914c2.128.005,5.693.449,8.152,3.022V39.261a.876.876,0,0,0-.126-.463C41.756,35.548,37.877,35.054,35.745,35.049Z" transform="translate(-31.837 -35.049)" fill="#9098d8"/>
          <path id="Path_6714" data-name="Path 6714" d="M165.818,49.67V35.962a.912.912,0,0,0-.909-.914h0c-2.133.005-6.011.5-8.03,3.75a.876.876,0,0,0-.126.463V53.606c2.459-2.574,6.024-3.017,8.152-3.022A.917.917,0,0,0,165.818,49.67Z" transform="translate(-143.268 -35.048)" fill="#9098d8"/>
          <path id="Path_6715" data-name="Path 6715" d="M181.364,71.8H180.7v11.46a2.339,2.339,0,0,1-2.331,2.333,10.139,10.139,0,0,0-6.888,2.352,22.006,22.006,0,0,1,9.677.187.914.914,0,0,0,1.119-.891V72.715A.915.915,0,0,0,181.364,71.8Z" transform="translate(-156.732 -68.64)" fill="#9098d8"/>
          <path id="Path_6716" data-name="Path 6716" d="M1.577,83.261V71.8H.914A.915.915,0,0,0,0,72.715V87.242a.914.914,0,0,0,1.119.891,22,22,0,0,1,9.677-.187,10.139,10.139,0,0,0-6.888-2.352A2.339,2.339,0,0,1,1.577,83.261Z" transform="translate(0 -68.64)" fill="#9098d8"/>
        </g>
      </g>
    </g>
  </g>
</svg>
