<svg xmlns="http://www.w3.org/2000/svg" width="23.583" height="23.583" viewBox="0 0 23.583 23.583">
  <g id="interface" transform="translate(0 0)">
    <path id="Path_6710" data-name="Path 6710" d="M12.532,23.583h-1.48a2.174,2.174,0,0,1-2.171-2.171v-.5A9.521,9.521,0,0,1,7.4,20.3l-.355.355a2.171,2.171,0,0,1-3.071,0L2.931,19.606a2.171,2.171,0,0,1,0-3.071l.355-.355A9.521,9.521,0,0,1,2.672,14.7h-.5A2.173,2.173,0,0,1,0,12.532v-1.48A2.174,2.174,0,0,1,2.171,8.881h.5A9.523,9.523,0,0,1,3.285,7.4l-.355-.355a2.171,2.171,0,0,1,0-3.071L3.977,2.931a2.171,2.171,0,0,1,3.071,0l.355.355a9.53,9.53,0,0,1,1.478-.614v-.5A2.173,2.173,0,0,1,11.052,0h1.48A2.173,2.173,0,0,1,14.7,2.171v.5a9.521,9.521,0,0,1,1.478.614l.355-.355a2.171,2.171,0,0,1,3.071,0l1.046,1.046a2.171,2.171,0,0,1,0,3.071L20.3,7.4a9.522,9.522,0,0,1,.614,1.478h.5a2.174,2.174,0,0,1,2.171,2.171v1.48A2.174,2.174,0,0,1,21.412,14.7h-.5a9.523,9.523,0,0,1-.614,1.478l.355.355a2.171,2.171,0,0,1,0,3.071l-1.046,1.046a2.171,2.171,0,0,1-3.071,0l-.355-.355a9.53,9.53,0,0,1-1.478.614v.5A2.173,2.173,0,0,1,12.532,23.583Zm-4.9-4.736a8.144,8.144,0,0,0,2.111.876.691.691,0,0,1,.518.669v1.02a.79.79,0,0,0,.789.789h1.48a.79.79,0,0,0,.789-.789v-1.02a.691.691,0,0,1,.518-.669,8.144,8.144,0,0,0,2.111-.876.691.691,0,0,1,.84.106l.723.723a.789.789,0,0,0,1.116,0l1.047-1.047a.789.789,0,0,0,0-1.116l-.723-.723a.691.691,0,0,1-.106-.84,8.143,8.143,0,0,0,.876-2.111.691.691,0,0,1,.669-.518h1.02a.79.79,0,0,0,.789-.789v-1.48a.79.79,0,0,0-.789-.789h-1.02a.691.691,0,0,1-.669-.518,8.144,8.144,0,0,0-.876-2.111.691.691,0,0,1,.106-.84l.723-.723a.789.789,0,0,0,0-1.116L18.629,3.908a.789.789,0,0,0-1.116,0l-.723.723a.691.691,0,0,1-.84.106,8.144,8.144,0,0,0-2.111-.876.691.691,0,0,1-.518-.669V2.171a.79.79,0,0,0-.789-.789h-1.48a.79.79,0,0,0-.789.789v1.02a.691.691,0,0,1-.518.669,8.144,8.144,0,0,0-2.111.876.691.691,0,0,1-.84-.106L6.07,3.908a.789.789,0,0,0-1.116,0L3.908,4.954a.789.789,0,0,0,0,1.116l.723.723a.691.691,0,0,1,.106.84A8.143,8.143,0,0,0,3.86,9.744a.691.691,0,0,1-.669.518H2.171a.79.79,0,0,0-.789.789v1.48a.79.79,0,0,0,.789.789h1.02a.691.691,0,0,1,.669.518,8.144,8.144,0,0,0,.876,2.111.691.691,0,0,1-.106.84l-.723.723a.789.789,0,0,0,0,1.116l1.047,1.047a.789.789,0,0,0,1.116,0l.723-.723a.694.694,0,0,1,.84-.106Z" transform="translate(0 0)" fill="#9098d8"/>
    <path id="Path_6711" data-name="Path 6711" d="M149.731,154.862a5.131,5.131,0,1,1,5.131-5.131A5.137,5.137,0,0,1,149.731,154.862Zm0-8.881a3.749,3.749,0,1,0,3.749,3.749A3.754,3.754,0,0,0,149.731,145.982Z" transform="translate(-137.94 -137.94)" fill="#9098d8"/>
  </g>
</svg>
