<svg id="_004-bookmark" data-name="004-bookmark" xmlns="http://www.w3.org/2000/svg" width="17.87" height="22.786" viewBox="0 0 17.87 22.786">
  <g id="Group_12" data-name="Group 12" transform="translate(0)">
    <path id="Path_28" data-name="Path 28" d="M52.943,22.786a.856.856,0,0,1-.654-.3l-7.426-8.805-7.426,8.805a.855.855,0,0,1-1.509-.551V.855A.855.855,0,0,1,36.783,0h16.16A.855.855,0,0,1,53.8.855V21.931a.855.855,0,0,1-.855.855ZM44.863,11.5a.855.855,0,0,1,.654.3l6.571,7.791V1.71H37.638V19.59L44.209,11.8A.855.855,0,0,1,44.863,11.5Z" transform="translate(-35.928)" fill="#9098d8"/>
  </g>
</svg>
